<svg width="23" height="23" viewBox="0 0 23 23" fill="none" xmlns="http://www.w3.org/2000/svg">
<g clip-path="url(#clip0_1742_17963)">
<path d="M10.5417 3.83325H3.83335C3.32502 3.83325 2.83751 4.03519 2.47807 4.39463C2.11862 4.75408 1.91669 5.24159 1.91669 5.74992V19.1666C1.91669 19.6749 2.11862 20.1624 2.47807 20.5219C2.83751 20.8813 3.32502 21.0833 3.83335 21.0833H17.25C17.7584 21.0833 18.2459 20.8813 18.6053 20.5219C18.9648 20.1624 19.1667 19.6749 19.1667 19.1666V12.4583" stroke="#2461FF" stroke-width="1.99832" stroke-linecap="round" stroke-linejoin="round"/>
<path d="M17.7292 2.39572C18.1104 2.01448 18.6275 1.80029 19.1667 1.80029C19.7059 1.80029 20.2229 2.01448 20.6042 2.39572C20.9854 2.77697 21.1996 3.29406 21.1996 3.83322C21.1996 4.37239 20.9854 4.88948 20.6042 5.27072L11.5 14.3749L7.66669 15.3332L8.62502 11.4999L17.7292 2.39572Z" stroke="#2461FF" stroke-width="1.99832" stroke-linecap="round" stroke-linejoin="round"/>
</g>
<defs>
<clipPath id="clip0_1742_17963">
<rect width="23" height="23" fill="white"/>
</clipPath>
</defs>
</svg>
