<svg viewBox="0 0 35 30" fill="currentColor" xmlns="http://www.w3.org/2000/svg">
<path d="M9.0641 7.68299C7.99296 7.81456 6.39928 7.99346 5.23012 8.14012C4.41796 8.24199 3.69431 8.69837 3.33251 9.43259C2.50277 11.1164 1.5 13.9931 1.5 17.3199C1.5 20.6735 2.51903 23.7392 3.35258 25.5557C3.70481 26.3233 4.43395 26.8227 5.26765 26.9578C6.45416 27.15 8.03833 27.3892 9.0641 27.5502M9.0641 7.68299C8.65385 13.3406 8.07949 25.4499 9.0641 27.5502M9.0641 7.68299C10.1764 7.54637 10.0189 7.51035 11.3462 7.39637M9.0641 27.5502C12.1934 28.0413 15.1585 27.9991 18.2607 27.9991C21.1056 27.9991 23.1661 27.8863 25.9359 27.5502M25.9359 7.68299C27.241 7.84475 28.8851 8.01567 30.0164 8.16226C30.6811 8.24837 31.2863 8.58781 31.621 9.16848C32.4592 10.6232 33.5 13.4092 33.5 17.3199C33.5 21.1332 32.5104 23.9594 31.6839 25.6069C31.3124 26.3474 30.5756 26.8113 29.7594 26.9531C28.616 27.1517 27.0994 27.409 25.9359 27.5502M25.9359 7.68299C26.4829 12.7809 27.2487 23.7566 25.9359 27.5502M25.9359 7.68299C24.8214 7.54486 24.9819 7.50029 23.6538 7.39637M11.3462 7.39637C13.4352 7.21697 15.2987 7.08958 17.5 7.08958C19.3259 7.08958 21.9635 7.26411 23.6538 7.39637M11.3462 7.39637C11.6197 5.93007 13.2333 2 17.5 2C21.7667 2 23.5171 5.95903 23.6538 7.39637" stroke="white" stroke-width="3"/>
</svg>
