<svg width="25" height="25" viewBox="0 0 25 25" fill="none" xmlns="http://www.w3.org/2000/svg">
<path d="M3.12488 6.25012H5.20821H21.8749" stroke="#F14444" stroke-width="1.99832" stroke-linecap="round" stroke-linejoin="round"/>
<path d="M8.33319 6.2501V4.16677C8.33319 3.61423 8.55268 3.08433 8.94338 2.69363C9.33409 2.30293 9.86399 2.08344 10.4165 2.08344H14.5832C15.1357 2.08344 15.6656 2.30293 16.0563 2.69363C16.447 3.08433 16.6665 3.61423 16.6665 4.16677V6.2501M19.7915 6.2501V20.8334C19.7915 21.386 19.572 21.9159 19.1813 22.3066C18.7906 22.6973 18.2607 22.9168 17.7082 22.9168H7.29152C6.73899 22.9168 6.20909 22.6973 5.81838 22.3066C5.42768 21.9159 5.20819 21.386 5.20819 20.8334V6.2501H19.7915Z" stroke="#F14444" stroke-width="1.99832" stroke-linecap="round" stroke-linejoin="round"/>
<path d="M10.4165 11.4584V17.7084" stroke="#F14444" stroke-width="1.99832" stroke-linecap="round" stroke-linejoin="round"/>
<path d="M14.5832 11.4584V17.7084" stroke="#F14444" stroke-width="1.99832" stroke-linecap="round" stroke-linejoin="round"/>
</svg>
