<svg width="29" height="26" viewBox="0 0 29 26" fill="none" xmlns="http://www.w3.org/2000/svg">
<path d="M14.5 2C12.0488 2 8.26234 2.67278 5.59537 3.19378C4.59916 3.38839 3.76888 4.07812 3.44066 5.03864C2.77652 6.98223 2 9.7279 2 11.5736C2 14.1092 2.87925 17.7081 3.60537 19.3977C3.82303 19.9042 4.2721 20.2452 4.81262 20.3535C6.14668 20.6209 8.52674 20.8799 10.3047 21.0436C11.0721 21.1143 11.7809 21.4733 12.3239 22.0202C13.1121 22.8142 14.0725 23.6667 14.5 23.6667C15.0678 23.6667 15.7788 22.9447 16.6332 22.0474C17.1846 21.4682 17.9503 21.1551 18.7479 21.0986C20.3454 20.9855 22.1753 20.6947 23.5558 20.4344C24.4695 20.2621 25.2375 19.6494 25.5586 18.7767C26.2229 16.9715 27 14.1894 27 11.5736C27 8.99573 26.2452 6.44634 25.5875 4.80534C25.2527 3.97005 24.4895 3.40692 23.6065 3.23334C20.9317 2.70755 17.0137 2 14.5 2Z" stroke="white" stroke-width="3"/>
<path d="M7.83331 14.5C9.94684 15.1289 15.2391 16.0092 19.5 14.5" stroke="white" stroke-width="3" stroke-linecap="round"/>
<path d="M6.99994 8.66669C9.89955 9.29554 16.7923 10.1759 21.1666 8.66669" stroke="white" stroke-width="3" stroke-linecap="round"/>
</svg>
